<?xml version="1.0" standalone="no"?>
<!DOCTYPE svg PUBLIC "-//W3C//DTD SVG 20010904//EN"
 "http://www.w3.org/TR/2001/REC-SVG-20010904/DTD/svg10.dtd">
<svg version="1.0" xmlns="http://www.w3.org/2000/svg"
 width="1024.000000pt" height="1024.000000pt" viewBox="0 0 1024.000000 1024.000000"
 preserveAspectRatio="xMidYMid meet">
<metadata>
Created by potrace 1.14, written by Peter Selinger 2001-2017
</metadata>
<g transform="translate(0.000000,1024.000000) scale(0.100000,-0.100000)"
fill="#000000" stroke="none">
<path d="M10065 10218 c-3 -13 -6 -52 -7 -88 l-3 -65 -29 3 c-24 3 -28 1 -22
-13 5 -14 2 -16 -14 -12 -17 4 -20 0 -20 -29 0 -43 32 -60 68 -38 31 20 28 0
-5 -26 -26 -20 -43 -21 -87 -4 -12 4 -15 2 -10 -9 3 -8 0 -18 -5 -22 -17 -10
-3 -25 22 -25 21 -1 21 -1 -3 -15 -14 -8 -35 -14 -47 -15 -21 0 -22 -2 -11
-27 17 -38 16 -38 35 -21 10 9 34 19 53 23 19 4 41 12 49 19 12 9 12 8 3 -10
-6 -11 -9 -29 -6 -40 3 -14 -4 -24 -27 -37 -17 -9 -35 -15 -40 -11 -5 3 -9 -1
-9 -10 0 -8 -3 -22 -6 -31 -5 -11 0 -18 14 -22 30 -7 38 -34 9 -32 -42 4 -56
-1 -62 -21 -7 -24 -30 -26 -39 -5 -3 8 -12 15 -21 15 -19 0 -36 -41 -24 -56 5
-6 7 -19 3 -28 -5 -12 -10 -13 -25 -5 -16 8 -19 6 -19 -11 0 -42 40 -61 81
-40 15 9 19 7 19 -6 0 -11 5 -14 18 -9 9 4 32 9 50 12 27 5 32 10 32 34 l0 29
21 -21 c25 -25 22 -65 -5 -61 -13 3 -17 -1 -13 -11 3 -9 -1 -18 -9 -21 -24 -9
-54 -7 -54 4 0 6 -9 10 -20 10 -25 0 -27 -30 -4 -64 18 -29 4 -42 -25 -24 -26
16 -46 -1 -36 -32 5 -15 14 -21 33 -20 15 1 32 1 37 0 17 -3 -38 -18 -72 -19
-22 -1 -36 -8 -43 -22 -9 -16 -14 -18 -26 -8 -11 9 -17 9 -28 0 -8 -7 -17 -8
-20 -3 -10 17 -56 1 -56 -19 0 -13 10 -20 35 -25 19 -3 35 -10 35 -15 0 -5 -6
-8 -12 -6 -8 1 -12 -7 -10 -20 2 -17 -3 -24 -23 -29 -24 -6 -26 -10 -20 -42 8
-42 28 -64 49 -56 14 5 15 -1 9 -42 -3 -27 -10 -52 -16 -55 -5 -4 -4 -16 4
-30 7 -13 13 -35 14 -49 1 -14 5 -35 9 -47 9 -28 -9 -31 -42 -7 -30 21 -30 -2
0 -33 19 -21 20 -26 8 -34 -11 -8 -12 -12 -2 -16 27 -11 12 -33 -23 -33 -29 0
-35 -4 -35 -21 0 -11 14 -34 30 -51 36 -35 33 -63 -7 -73 -18 -4 -32 0 -47 14
-27 26 -36 26 -36 4 1 -21 33 -63 49 -63 6 0 11 -13 11 -30 0 -36 -6 -37 -30
-7 -10 12 -21 19 -25 15 -8 -8 31 -85 47 -90 6 -2 8 -10 4 -17 -5 -7 -12 -9
-19 -3 -7 5 -22 12 -34 15 -31 7 -30 -14 2 -44 13 -13 25 -30 25 -36 0 -15
-36 -17 -45 -3 -3 6 -11 10 -17 10 -7 0 1 -13 17 -30 26 -27 27 -30 10 -36
-20 -8 -65 35 -65 62 0 12 -4 12 -25 -2 -25 -17 -29 -42 -6 -36 7 1 9 -2 6 -8
-4 -6 -14 -9 -22 -6 -11 5 -13 2 -9 -9 3 -9 -1 -18 -9 -21 -8 -4 -12 -10 -9
-15 3 -5 13 -5 25 1 15 8 19 7 19 -4 0 -8 -6 -19 -13 -23 -8 -4 -16 -16 -20
-25 -4 -11 -17 -18 -32 -18 -22 0 -25 3 -20 20 4 12 1 28 -6 36 -10 13 -10 17
2 25 13 8 6 13 -13 10 -4 0 -13 9 -19 20 -12 24 1 39 34 39 26 0 11 20 -29 36
-39 16 -43 29 -13 44 16 9 18 14 8 26 -6 8 -18 14 -25 14 -9 0 -12 9 -8 28 2
15 1 41 -4 57 l-9 30 -13 -30 c-7 -16 -13 -42 -14 -57 -1 -14 -9 -35 -19 -46
-17 -19 -17 -22 -3 -51 15 -29 15 -31 -4 -41 -11 -6 -20 -7 -20 -3 0 4 -5 2
-11 -4 -7 -7 -5 -21 10 -48 11 -21 18 -42 15 -47 -3 -4 3 -8 14 -8 10 0 19 -7
19 -15 0 -10 -6 -13 -17 -10 -19 6 -64 -8 -85 -28 -8 -6 -21 -18 -30 -25 -29
-24 -11 -37 45 -34 35 3 50 0 46 -7 -4 -6 -15 -11 -25 -11 -11 0 -29 -9 -42
-20 l-24 -19 30 -1 c33 0 62 -14 48 -23 -14 -9 -73 -5 -73 4 0 5 -7 6 -15 3
-24 -10 -17 -84 9 -94 12 -5 15 -9 7 -9 -7 -1 -11 -7 -8 -15 3 -8 -2 -17 -11
-21 -15 -5 -14 -9 8 -25 l24 -18 -39 -7 c-22 -4 -45 -8 -52 -10 -13 -4 -14
-45 -1 -45 4 0 8 -4 8 -9 0 -16 -68 -41 -113 -41 -24 0 -73 -9 -107 -20 -34
-11 -76 -20 -92 -20 -42 0 -92 -24 -111 -54 -15 -22 -25 -26 -62 -26 -34 0
-52 -6 -77 -29 -24 -20 -48 -30 -88 -35 -30 -4 -65 -14 -77 -22 -31 -19 -29
-52 2 -66 26 -12 31 -23 15 -33 -5 -3 -10 -19 -10 -34 0 -23 7 -31 40 -44 64
-25 52 -41 -25 -32 -51 5 -69 3 -87 -9 -29 -21 -103 -20 -183 1 -60 16 -66 16
-123 -1 -49 -15 -66 -16 -93 -7 -49 17 -78 13 -111 -14 -24 -20 -41 -25 -84
-25 -83 0 -146 -29 -224 -104 -66 -64 -70 -66 -120 -66 -47 0 -55 -4 -83 -35
-71 -79 -163 -167 -185 -176 -13 -5 -49 -9 -81 -9 -103 0 -154 -22 -237 -105
-41 -40 -78 -85 -84 -100 -13 -34 -13 -106 0 -140 8 -22 3 -38 -29 -103 -35
-69 -56 -135 -77 -242 -4 -19 -13 -40 -22 -46 -17 -12 -7 -38 10 -28 7 4 8 2
4 -4 -4 -7 -17 -12 -29 -12 -16 0 -18 -3 -8 -9 9 -6 10 -11 2 -15 -5 -4 -34 5
-63 20 -48 25 -51 27 -33 40 10 8 22 14 27 14 19 0 6 20 -18 26 -22 6 -25 11
-21 33 3 14 2 42 -2 61 l-8 35 -13 -30 c-6 -16 -13 -42 -15 -58 -1 -15 -10
-36 -20 -47 -15 -17 -16 -24 -5 -49 14 -34 7 -51 -21 -51 -23 0 -25 -23 -3
-45 9 -9 14 -19 11 -22 -11 -10 13 -42 28 -37 9 4 13 -1 12 -13 -1 -15 -7 -18
-33 -15 -21 3 -38 -2 -51 -15 -11 -10 -28 -23 -39 -29 -10 -6 -20 -19 -22 -28
-3 -13 6 -16 50 -17 46 0 50 -2 28 -11 -72 -30 -79 -48 -19 -48 40 0 42 -1 27
-16 -14 -14 -22 -15 -49 -5 -42 14 -56 2 -51 -44 3 -26 9 -35 23 -35 17 0 18
-3 7 -22 -7 -13 -17 -26 -23 -30 -9 -8 4 -22 30 -31 18 -7 -2 -18 -41 -21 -22
-2 -42 -4 -46 -5 -13 -2 -9 -51 4 -51 6 0 2 -9 -10 -20 -22 -21 -30 -50 -13
-50 5 0 11 -9 14 -20 3 -11 1 -20 -4 -20 -5 0 -9 -4 -9 -9 0 -5 10 -7 23 -5
13 3 8 -2 -13 -12 -32 -16 -33 -18 -12 -21 12 -3 22 -8 22 -12 0 -14 -23 -29
-36 -24 -8 3 -14 -1 -14 -11 0 -9 -4 -16 -9 -16 -5 0 -12 -8 -14 -17 -4 -14
-5 -12 -6 5 0 12 -5 22 -11 22 -5 0 -10 7 -10 16 0 10 6 14 15 11 25 -10 28
12 6 48 -11 19 -16 35 -10 35 6 0 7 5 3 12 -4 7 -11 28 -15 48 l-7 35 -1 -31
c-1 -18 -7 -34 -16 -38 -8 -3 -15 -13 -15 -22 0 -10 5 -14 16 -10 8 3 12 2 9
-4 -3 -6 -15 -10 -27 -10 -14 0 -18 -5 -14 -15 3 -8 1 -15 -4 -15 -6 0 -10 -4
-10 -9 0 -4 11 -6 25 -3 27 5 35 -15 10 -24 -10 -4 -13 -13 -9 -26 4 -13 2
-18 -4 -14 -6 3 -13 2 -17 -3 -3 -6 -12 -8 -20 -4 -9 3 -15 -1 -15 -11 0 -9
-5 -16 -11 -16 -8 0 -8 -5 1 -15 7 -8 17 -12 24 -8 6 4 6 0 -2 -9 -7 -9 -12
-20 -11 -24 4 -26 -15 -54 -37 -54 -24 0 -33 -15 -13 -22 6 -2 -28 -41 -75
-86 -87 -84 -117 -97 -89 -41 14 28 14 31 -3 44 -11 8 -25 15 -31 15 -12 0
-17 19 -14 48 1 6 -5 12 -14 12 -8 0 -15 7 -15 15 0 8 9 15 20 15 13 0 20 7
20 20 0 11 -5 20 -12 20 -6 0 -8 3 -5 7 4 3 -1 12 -11 19 -9 7 -12 14 -7 14
14 0 9 78 -5 95 -7 8 -8 19 -4 26 5 9 0 10 -20 5 -19 -5 -26 -3 -26 8 0 8 5
16 12 18 21 7 0 36 -31 43 -22 5 -31 12 -31 26 0 17 3 18 21 9 28 -15 32 -9
18 26 -7 16 -11 35 -10 42 1 8 -4 21 -11 29 -8 10 -13 43 -13 84 0 97 -19 87
-25 -13 l-5 -83 -29 3 c-23 3 -28 1 -23 -12 5 -11 1 -16 -13 -16 -15 0 -20 -7
-20 -30 0 -40 32 -58 66 -35 31 20 31 5 0 -25 -25 -22 -45 -23 -90 -5 -15 7
-18 5 -13 -8 3 -9 -1 -21 -10 -29 -15 -11 -16 -11 -10 5 4 11 2 17 -8 17 -8 0
-15 5 -15 11 0 5 5 7 10 4 6 -3 10 -5 10 -3 -1 2 -7 26 -15 53 -12 43 -14 46
-14 19 -1 -19 -7 -34 -16 -38 -21 -8 -19 -36 3 -37 11 -1 8 -4 -8 -8 -14 -4
-24 -13 -22 -19 1 -7 -2 -12 -8 -12 -5 0 -10 -5 -10 -10 0 -6 11 -8 25 -4 29
7 34 -10 8 -25 -14 -8 -15 -12 -4 -25 9 -11 10 -16 2 -16 -6 0 -11 4 -11 8 0
5 -22 19 -50 32 -55 26 -63 45 -25 62 14 6 25 15 25 19 0 7 -27 22 -45 23 -5
1 -10 19 -11 41 -1 81 -4 105 -14 105 -13 0 -43 -107 -35 -121 4 -6 -5 -23
-19 -38 -27 -28 -27 -28 -10 -65 23 -46 12 -58 -57 -62 -47 -3 -50 -2 -37 14
8 9 15 34 15 55 1 33 -2 38 -18 34 -11 -3 -23 1 -28 10 -6 11 -13 13 -25 6
-23 -13 -76 -4 -76 13 0 8 6 11 14 8 8 -3 23 -1 32 4 15 9 14 11 -9 27 -30 19
-35 35 -12 35 8 0 29 14 47 30 19 18 25 30 17 30 -8 0 -33 9 -54 20 -25 13
-51 19 -70 16 l-30 -5 33 11 c23 8 32 17 32 34 0 17 7 24 31 29 l31 7 -54 26
c-49 24 -51 26 -25 30 58 8 19 50 -70 77 -13 3 -23 10 -23 14 0 12 39 6 52 -7
7 -7 18 -12 25 -12 16 0 18 46 2 55 -6 4 -8 12 -6 19 2 6 1 21 -4 34 -6 16
-16 22 -39 22 -28 0 -29 2 -18 20 11 17 11 22 0 29 -7 4 -10 15 -6 24 4 12 1
17 -10 17 -17 0 -39 33 -29 44 3 3 17 6 29 6 40 0 34 16 -14 39 l-47 23 29 23
30 24 -28 7 c-23 5 -27 11 -25 38 3 51 0 86 -9 86 -10 0 -32 -67 -32 -95 0
-10 -7 -27 -16 -36 -14 -16 -15 -23 -4 -48 14 -34 7 -51 -19 -51 -29 0 -33
-12 -11 -35 12 -12 20 -26 19 -31 -4 -23 2 -34 19 -34 11 0 18 -7 18 -19 0
-14 -4 -17 -14 -12 -18 10 -82 -8 -82 -23 0 -6 -10 -16 -22 -21 -13 -6 -24
-19 -26 -29 -4 -17 1 -18 47 -13 54 6 71 -8 23 -19 -62 -15 -69 -44 -11 -44
27 0 38 -4 33 -11 -4 -7 -24 -9 -55 -6 -52 6 -57 2 -54 -48 1 -22 8 -31 26
-36 13 -4 18 -7 12 -8 -7 -1 -13 -10 -13 -21 0 -11 -4 -20 -10 -20 -19 0 -10
-19 12 -26 l23 -7 -25 -10 c-14 -6 -29 -9 -34 -8 -4 1 -17 -1 -27 -4 -21 -7
-27 -55 -7 -55 7 0 2 -7 -10 -16 -28 -20 -28 -50 1 -59 32 -11 70 -11 85 -1 8
5 12 4 12 -5 0 -8 -15 -20 -32 -27 -18 -7 -49 -21 -68 -30 -33 -15 -34 -16
-10 -19 14 -2 44 -6 68 -9 29 -4 42 -10 42 -21 0 -13 -9 -15 -56 -10 -47 5
-54 4 -43 -9 9 -11 9 -14 -1 -14 -9 0 -10 -3 -1 -14 9 -11 7 -15 -11 -20 -19
-5 -20 -8 -8 -16 21 -13 54 -12 68 2 16 16 15 -1 0 -34 -14 -29 -44 -39 -104
-33 -25 2 -45 -2 -55 -11 -9 -8 -22 -12 -30 -9 -18 7 -43 45 -30 45 6 0 13 -4
16 -10 3 -5 15 -10 26 -10 16 0 18 5 13 28 -4 15 -11 30 -16 33 -6 3 -9 15 -7
25 1 11 -3 32 -10 49 -7 16 -13 64 -13 107 -1 77 -11 104 -29 77 -5 -8 -9 -31
-9 -51 0 -45 -11 -54 -34 -29 -17 19 -18 19 -53 -1 -37 -22 -52 -15 -53 24 0
20 -16 32 -25 18 -16 -26 -25 -4 -25 60 l0 70 29 0 c29 0 92 36 99 58 2 7 -5
12 -17 12 -13 0 -19 5 -15 14 4 11 -3 13 -35 9 -26 -4 -41 -2 -41 5 0 7 28 10
76 8 58 -2 82 2 105 16 33 20 42 46 10 28 -34 -18 -37 -10 -6 16 21 18 24 24
10 19 -11 -4 -41 -9 -67 -10 -26 -2 -51 -6 -57 -9 -14 -9 -55 12 -70 37 l-14
22 22 -20 23 -19 18 24 c19 25 19 25 -15 60 -38 39 -55 77 -55 121 0 27 2 28
20 17 14 -9 20 -24 20 -50 0 -33 3 -37 38 -48 75 -23 93 -33 108 -61 17 -34
31 -36 73 -11 21 11 31 25 31 41 0 20 -4 22 -24 17 -14 -3 -28 -2 -31 4 -4 6
6 10 23 10 17 0 37 9 51 24 22 24 22 24 3 35 -11 6 -22 8 -25 4 -3 -3 -18 -3
-32 1 -21 5 -24 10 -15 26 15 27 13 32 -10 25 -16 -5 -20 -2 -20 19 0 29 -14
34 -28 10 -9 -15 -12 -15 -41 2 -22 13 -29 23 -25 36 3 10 0 33 -7 52 -11 29
-10 38 4 60 17 25 8 44 -13 31 -6 -4 -17 -1 -25 5 -8 6 -23 9 -35 5 -19 -6
-20 -2 -20 54 0 69 10 75 75 44 l36 -17 24 29 c31 38 31 41 -1 49 -18 5 -23
10 -17 19 5 7 10 22 11 35 1 21 -2 22 -34 16 -40 -7 -42 -2 -13 25 28 26 19
46 -28 61 -48 16 -57 24 -49 46 5 13 9 15 18 6 7 -7 20 -12 31 -12 14 0 17 5
11 23 -3 12 -11 28 -16 34 -6 7 -8 22 -5 33 3 10 -1 24 -9 31 -8 6 -14 21 -14
33 0 12 -4 26 -9 32 -5 5 -5 32 2 67 8 43 7 61 -1 69 -20 20 -27 -1 -32 -105
l-5 -102 -37 3 c-39 4 -47 -5 -25 -27 10 -11 7 -13 -16 -9 -34 6 -40 -2 -31
-46 8 -48 51 -64 89 -35 33 27 32 5 -1 -26 -29 -27 -66 -32 -109 -15 -22 8
-26 8 -22 -4 3 -7 1 -18 -5 -24 -19 -19 -1 -43 27 -36 14 3 25 2 25 -4 0 -11
-71 -42 -96 -42 -11 0 -14 -5 -9 -17 4 -10 10 -26 12 -35 7 -22 12 -22 43 -1
14 10 29 18 35 18 21 2 71 18 83 28 15 12 16 -5 0 -21 -8 -8 -9 -18 -1 -35 9
-20 7 -26 -26 -47 -20 -13 -44 -23 -53 -21 -10 1 -18 -4 -18 -11 0 -7 -3 -23
-6 -35 -5 -18 -1 -23 19 -28 26 -7 42 -30 31 -46 -3 -5 -13 -5 -24 1 -29 16
-39 12 -70 -22 l-30 -32 -22 21 c-43 40 -90 -9 -54 -56 8 -10 8 -15 -2 -18 -6
-3 -9 -9 -6 -15 4 -7 -4 -8 -25 -3 -27 6 -31 4 -31 -14 0 -34 37 -64 73 -59
18 3 40 8 50 13 13 5 16 4 11 -9 -7 -19 12 -21 53 -5 15 7 38 11 51 10 21 -1
23 3 21 34 -4 40 6 56 16 26 3 -12 13 -21 21 -21 11 0 14 -10 12 -37 -3 -33
-6 -38 -25 -35 -25 4 -30 -7 -11 -26 9 -9 0 -12 -40 -12 -30 0 -52 4 -52 11 0
6 -10 9 -22 7 -28 -4 -36 -42 -15 -66 8 -9 17 -25 20 -35 6 -16 2 -17 -43 -11
-45 6 -50 5 -50 -13 0 -36 24 -57 58 -50 17 4 34 2 37 -3 3 -6 -5 -10 -19 -10
-14 0 -28 -4 -31 -10 -3 -5 -19 -7 -36 -3 -21 4 -35 0 -49 -12 -10 -9 -32 -18
-47 -19 -15 -1 -33 -4 -38 -8 -6 -3 -19 0 -29 8 -18 13 -17 15 18 54 20 22 36
47 36 55 0 8 5 15 10 15 6 0 10 7 10 15 0 8 -4 15 -10 15 -5 0 -10 -7 -10 -15
0 -16 -45 -21 -54 -6 -6 9 39 97 55 107 5 3 7 10 4 15 -4 5 -27 -3 -52 -18
l-46 -27 6 31 c4 21 2 33 -6 36 -7 2 0 21 20 53 18 27 28 51 22 53 -6 2 -16
-2 -22 -8 -14 -14 -44 -14 -53 0 -3 6 -1 16 5 22 19 19 13 39 -9 32 -11 -4
-20 -2 -20 4 0 11 7 18 53 52 15 12 26 24 23 27 -3 2 -12 0 -19 -7 -15 -12
-47 -5 -47 11 0 5 7 22 15 38 14 27 14 30 -1 30 -13 0 -15 6 -10 31 5 29 4 30
-11 18 -15 -12 -16 -12 -10 6 3 11 9 30 13 43 4 14 2 22 -5 22 -8 0 -9 5 -1
19 7 14 7 27 -1 44 -8 18 -8 30 1 46 8 16 8 26 1 35 -6 7 -9 26 -6 42 3 16 -1
49 -8 74 l-14 45 -7 -67 c-4 -37 -5 -72 -1 -78 3 -5 -1 -10 -9 -10 -20 0 -21
-29 -1 -36 17 -7 21 -64 4 -64 -7 0 -8 -16 -3 -45 5 -38 4 -45 -10 -45 -20 0
-20 -3 3 -41 11 -17 17 -38 14 -45 -3 -8 0 -28 6 -45 15 -45 6 -52 -40 -29
-46 24 -48 20 -13 -26 23 -29 25 -36 13 -51 -11 -13 -11 -17 -1 -20 6 -3 12
-13 12 -24 0 -16 -7 -19 -41 -19 -41 0 -41 0 -35 -32 3 -19 19 -44 36 -58 36
-30 38 -53 8 -74 -31 -22 -43 -20 -73 10 -14 14 -31 24 -38 21 -17 -6 -9 -39
14 -59 10 -9 19 -21 19 -27 0 -6 6 -11 14 -11 20 0 30 -38 16 -56 -11 -12 -16
-10 -38 13 -34 37 -40 15 -10 -39 15 -26 31 -42 41 -42 13 1 14 -2 6 -17 -10
-20 -24 -25 -33 -11 -7 11 -66 13 -66 3 0 -5 16 -26 35 -47 19 -21 35 -42 35
-46 0 -11 -23 -10 -55 2 -23 9 -26 14 -20 41 5 24 4 30 -5 24 -10 -6 -11 -1
-6 19 5 19 3 25 -4 21 -7 -4 -9 10 -6 46 3 29 0 59 -5 65 -7 9 -7 20 1 34 8
16 9 25 1 33 -6 6 -7 17 -2 26 4 9 2 36 -5 61 -6 25 -13 36 -14 25 -1 -11 -5
-45 -9 -75 -5 -36 -4 -61 3 -72 8 -13 8 -23 -1 -36 -6 -10 -9 -31 -6 -46 4
-17 1 -31 -7 -36 -9 -6 -9 -12 0 -30 6 -12 14 -44 16 -71 l5 -50 -31 16 c-35
18 -37 13 -10 -25 13 -19 17 -31 10 -35 -8 -5 -8 -11 0 -20 17 -21 5 -32 -30
-27 l-31 4 3 -48 c2 -38 0 -49 -13 -52 -25 -5 -17 78 11 117 25 35 20 52 -10
33 -11 -6 -26 -9 -35 -6 -17 7 -21 34 -5 34 6 0 10 7 10 15 0 8 -9 15 -20 15
-25 0 -26 27 -1 35 10 3 27 15 37 26 18 20 18 20 -6 15 -14 -4 -31 -2 -39 3
-11 7 -11 13 3 32 20 29 21 50 1 43 -18 -7 -19 9 -4 38 10 18 9 20 -5 15 -19
-7 -21 9 -6 48 7 17 7 24 0 20 -12 -8 -13 8 -1 20 5 6 12 24 16 42 5 25 3 32
-12 35 -15 3 -12 7 11 18 54 28 62 80 12 80 -21 0 -26 7 -37 50 -7 28 -17 50
-22 50 -5 0 -7 -7 -3 -15 3 -9 0 -15 -8 -15 -8 0 -21 -3 -30 -6 -12 -5 -16 1
-16 24 0 47 -27 52 -43 8 -7 -17 -9 -17 -30 -2 -12 9 -32 20 -44 26 -18 7 -21
15 -16 43 3 19 -1 48 -11 70 -14 35 -14 39 5 72 23 38 18 59 -12 50 -11 -4
-26 -1 -34 5 -8 7 -28 10 -45 8 l-30 -5 0 78 c0 92 7 97 89 61 55 -24 81 -23
81 1 0 8 9 22 20 32 28 26 25 42 -10 50 -29 6 -40 20 -21 27 5 2 11 19 13 38
l3 35 -48 -3 c-47 -4 -48 -3 -35 17 7 12 18 21 25 21 7 0 13 11 13 25 0 21 -9
30 -42 45 -24 11 -51 20 -60 20 -23 0 -31 16 -24 46 l6 24 29 -21 c16 -12 34
-18 41 -14 14 9 4 63 -17 87 -9 10 -13 26 -10 40 4 13 0 29 -9 39 -16 17 -36
80 -36 109 0 8 4 49 8 91 5 56 3 78 -6 84 -23 14 -30 -12 -37 -150 l-8 -140
-42 3 c-56 5 -69 -4 -46 -30 18 -20 17 -20 -22 -17 l-40 4 2 -48 c2 -57 14
-74 59 -83 25 -5 40 -1 60 15 30 24 40 22 26 -6 -17 -30 -56 -62 -82 -66 -14
-3 -45 2 -70 9 -58 18 -63 17 -56 -2 3 -9 -1 -25 -9 -37 -21 -31 -3 -46 48
-40 40 4 41 4 22 -12 -30 -26 -80 -45 -116 -45 -21 0 -29 -4 -25 -12 2 -7 10
-30 17 -50 14 -44 24 -46 55 -17 13 12 33 23 46 25 25 3 83 22 110 35 27 13
30 11 17 -12 -11 -21 -9 -47 5 -80 5 -12 -1 -20 -23 -28 -16 -7 -37 -21 -46
-31 -12 -13 -26 -17 -45 -14 -26 6 -27 3 -33 -36 -6 -47 17 -85 45 -75 11 4
17 -2 21 -22 7 -37 3 -39 -39 -24 -26 9 -39 10 -47 2 -6 -6 -19 -11 -29 -11
-10 0 -18 -7 -18 -15 0 -10 -10 -15 -26 -15 -22 0 -25 2 -14 15 10 12 8 16
-11 24 -29 11 -51 -5 -29 -20 12 -8 11 -9 -5 -5 -11 3 -31 0 -44 -7 -21 -10
-25 -20 -26 -59 0 -27 4 -48 9 -48 6 0 5 -5 -1 -11 -6 -6 -9 -18 -6 -25 7 -19
-4 -18 -30 4 -14 10 -21 26 -19 39 3 17 0 21 -12 17 -18 -7 -21 9 -6 37 6 10
7 19 3 19 -10 0 -9 67 1 98 5 14 3 22 -4 22 -7 0 -9 12 -6 33 3 18 0 45 -8 62
-14 29 -14 30 -15 5 -1 -24 -45 -60 -75 -60 -20 0 -13 72 12 114 13 21 21 40
19 42 -2 2 -18 -2 -35 -8 -40 -15 -62 0 -38 25 23 22 20 40 -4 32 -34 -11 -23
21 15 45 38 24 46 41 15 33 -11 -3 -27 -3 -35 1 -14 5 -14 9 0 35 19 37 19 41
0 41 -18 0 -19 14 -3 43 10 20 10 21 -5 8 -15 -12 -17 -11 -17 8 0 12 5 31 10
42 8 13 7 19 0 19 -6 0 -8 10 -4 25 3 14 1 32 -6 39 -9 11 -8 21 4 44 14 26
14 32 1 42 -11 9 -12 17 -4 31 7 13 6 32 -2 62 -20 70 -29 65 -29 -15 0 -52
-4 -78 -12 -81 -10 -3 -10 -9 0 -26 14 -24 6 -151 -10 -162 -6 -4 -4 -18 5
-35 8 -16 17 -55 21 -87 l6 -58 -40 21 c-48 24 -53 10 -12 -33 26 -27 26 -29
9 -42 -17 -12 -17 -14 -1 -23 10 -6 15 -16 11 -26 -8 -20 -57 -22 -57 -1 0 7
-33 31 -72 52 -41 21 -73 45 -73 53 0 8 20 26 45 40 l45 24 -27 10 c-16 5 -28
13 -28 18 0 4 -11 8 -24 8 -22 0 -23 3 -22 68 0 37 -1 91 -3 120 -4 56 -5 56
-56 36 -20 -7 -20 -7 -1 14 11 12 25 22 33 22 7 0 13 7 13 15 0 19 -10 19 -39
-1 -14 -10 -33 -14 -50 -11 -15 3 -46 2 -69 -4 -49 -11 -85 0 -118 36 -13 14
-19 25 -15 25 5 0 14 -7 21 -15 18 -22 34 -18 58 14 l22 30 -41 38 c-44 42
-64 77 -77 139 -12 53 -3 71 27 53 16 -11 21 -24 21 -60 0 -51 9 -63 58 -72
66 -13 127 -46 141 -77 20 -46 47 -56 82 -31 15 12 35 21 43 21 8 0 15 13 18
36 5 40 -3 49 -29 35 -13 -6 -26 -5 -43 5 -24 13 -23 13 21 14 31 0 55 7 73
21 27 21 35 58 14 60 -7 1 -32 2 -55 3 -51 2 -61 11 -45 36 17 27 15 30 -13
30 -20 0 -25 5 -25 25 0 44 -38 44 -53 1 -2 -6 -17 -1 -33 10 -16 12 -37 24
-47 27 -15 6 -16 10 -5 27 11 16 10 29 -5 69 -17 49 -17 51 3 83 27 44 25 52
-10 45 -17 -4 -30 -2 -30 3 0 6 -18 10 -40 10 l-40 0 0 71 c0 93 13 105 79 72
59 -29 79 -29 91 1 5 13 17 29 26 34 25 14 11 39 -27 47 -28 6 -30 9 -17 19 8
6 17 26 20 44 l5 33 -49 -6 c-26 -4 -48 -3 -48 2 1 13 27 44 37 43 4 0 9 8 11
19 4 23 -24 44 -86 63 -42 13 -50 26 -36 62 5 13 9 12 27 -4 11 -11 29 -20 39
-20 16 0 18 5 12 38 -4 20 -14 42 -22 48 -10 7 -13 19 -8 38 5 20 1 34 -14 53
-11 14 -20 35 -20 47 0 12 -4 26 -10 32 -6 6 -6 30 0 69 16 94 13 125 -9 125
-24 0 -31 -26 -31 -115 0 -38 -3 -94 -7 -123 l-6 -54 -43 7 c-47 7 -63 -5 -39
-28 8 -9 15 -18 15 -21 0 -10 -46 -6 -57 5 -18 18 -25 -7 -18 -62 6 -46 10
-52 42 -66 33 -13 37 -13 74 12 50 33 50 14 0 -36 -43 -43 -65 -47 -131 -24
-53 19 -52 19 -49 -2 2 -10 -3 -28 -9 -41 -18 -31 -8 -42 41 -42 l42 0 -25
-20 c-14 -10 -43 -22 -65 -25 -76 -12 -75 -11 -54 -52 11 -21 19 -43 19 -50 0
-20 12 -16 49 16 19 17 38 28 43 25 9 -6 70 11 111 32 31 15 33 12 11 -21 -12
-18 -13 -28 -5 -44 17 -31 14 -38 -36 -71 -32 -22 -53 -30 -70 -26 -20 6 -23
3 -23 -21 0 -16 -5 -35 -10 -43 -11 -18 20 -50 48 -50 21 0 37 -39 23 -53 -5
-5 -22 -2 -39 7 -27 14 -33 14 -60 0 -17 -8 -35 -28 -41 -44 -13 -38 -40 -39
-65 -1 -18 26 -23 28 -48 19 -15 -6 -28 -13 -29 -16 0 -4 -2 -20 -4 -37 -3
-18 2 -36 12 -47 14 -16 14 -18 0 -24 -9 -3 -13 -12 -10 -21 5 -13 2 -15 -18
-9 -46 14 -54 12 -57 -16 -2 -19 3 -31 17 -40 12 -7 21 -18 21 -25 0 -8 13
-13 34 -13 40 0 53 -28 27 -57 -57 -66 -55 -56 -30 -113 24 -57 19 -85 -17
-85 -14 0 -18 6 -16 25 1 13 10 28 18 33 14 8 13 11 -5 28 -11 10 -27 16 -35
13 -9 -3 -16 -1 -16 5 0 6 -7 11 -16 11 -8 0 -13 4 -9 10 3 5 0 19 -7 30 -11
17 -11 22 2 30 12 8 12 10 -2 15 -14 6 -14 10 -3 32 12 22 11 28 -2 42 -9 9
-21 16 -27 16 -6 0 -13 11 -14 25 -2 14 -10 29 -18 33 -22 13 -18 40 5 32 24
-7 35 9 18 27 -8 7 -12 19 -9 26 2 6 -1 12 -6 12 -5 0 -10 6 -9 13 0 6 -1 22
-1 35 -2 21 -3 22 -18 8 -8 -9 -24 -16 -35 -16 -17 0 -18 3 -9 20 8 14 7 25
-2 39 -9 15 -9 25 1 47 8 17 9 30 2 37 -5 5 -7 23 -5 41 3 17 -2 51 -9 76
l-14 45 -7 -68 c-4 -38 -5 -71 -2 -74 3 -3 -2 -12 -12 -19 -16 -12 -16 -13 1
-31 19 -21 23 -58 7 -68 -6 -4 -7 -23 -4 -46 5 -32 4 -39 -10 -39 -20 0 -20
-2 4 -43 15 -26 18 -41 12 -58 -5 -13 -7 -30 -5 -36 3 -7 0 -13 -5 -13 -5 0
-12 9 -15 20 -3 11 -13 20 -24 20 -10 0 -14 3 -8 8 7 5 7 22 -1 52 -10 37 -13
40 -13 16 -1 -16 -8 -34 -18 -41 -17 -13 -9 -40 9 -29 6 4 8 2 5 -3 -4 -6 -18
-13 -32 -15 -31 -6 -51 16 -46 50 1 14 -5 42 -14 63 -17 37 -17 39 4 73 25 39
20 60 -10 51 -11 -4 -26 -1 -34 5 -8 7 -28 10 -45 8 l-30 -5 0 78 c0 92 7 97
88 62 63 -28 71 -28 79 -5 3 9 15 27 27 40 21 23 21 24 2 38 -11 8 -26 14 -33
14 -15 0 -17 12 -4 25 5 6 11 24 13 40 l3 30 -48 -3 c-47 -4 -48 -3 -35 17 7
12 18 21 25 21 7 0 13 11 13 25 0 21 -9 30 -42 45 -24 11 -51 20 -60 20 -23 0
-31 16 -23 47 5 23 7 24 23 10 9 -8 26 -17 37 -19 17 -3 20 2 17 32 -1 19 -10
40 -18 47 -11 8 -15 21 -11 40 3 18 -1 35 -14 52 -10 13 -19 33 -19 45 0 12
-5 27 -10 32 -7 7 -8 25 -2 50 13 57 10 146 -5 151 -20 7 -33 -42 -33 -120 0
-40 -3 -95 -6 -123 l-6 -51 -49 5 c-52 5 -61 -4 -32 -33 15 -16 14 -17 -23
-13 l-39 3 2 -48 c2 -56 13 -73 54 -82 21 -5 39 0 64 15 47 29 46 7 -2 -37
-34 -33 -40 -35 -87 -30 -28 3 -61 8 -74 12 -19 6 -22 4 -20 -16 2 -17 -5 -27
-25 -37 -54 -26 -83 9 -43 53 35 38 67 93 57 100 -5 3 -11 -2 -15 -10 -5 -14
-47 -21 -58 -9 -7 6 38 91 53 99 5 4 9 13 9 22 0 12 -9 9 -45 -11 -25 -15 -45
-26 -46 -24 -10 52 -4 87 23 123 17 24 24 41 17 44 -6 2 -16 -2 -22 -8 -16
-16 -57 -14 -57 3 0 8 5 18 10 21 6 3 10 13 10 21 0 11 -6 13 -20 9 -34 -11
-23 21 15 44 36 21 52 51 17 32 -11 -6 -24 -6 -35 1 -17 9 -17 11 2 44 l20 34
-20 0 c-16 0 -19 4 -14 18 20 49 20 48 2 33 -15 -12 -17 -11 -17 2 0 9 4 27
10 41 6 17 6 26 0 26 -6 0 -8 11 -4 24 3 14 1 33 -4 42 -7 13 -6 26 3 45 8 15
11 30 7 34 -4 3 -8 25 -8 48 -1 23 -6 58 -11 77 l-9 35 -7 -40 c-4 -22 -7 -57
-7 -77 0 -21 -4 -38 -10 -38 -15 0 -12 -26 5 -40 17 -14 21 -60 5 -60 -5 0
-10 -20 -10 -44 0 -26 -5 -46 -12 -48 -9 -3 -9 -11 3 -29 9 -13 19 -52 23 -87
l7 -63 -40 21 c-47 24 -52 14 -15 -29 23 -27 24 -34 13 -48 -11 -13 -11 -17
-1 -20 6 -3 12 -13 12 -24 0 -14 -7 -19 -30 -19 -28 0 -30 -3 -30 -37 0 -28 6
-42 26 -58 30 -24 27 -60 -6 -70 -20 -6 -20 -54 -20 -4186 l0 -4179 5120 0
5120 0 0 4429 c0 3146 -3 4432 -11 4436 -6 4 -21 -3 -34 -15 -21 -20 -27 -21
-41 -9 -14 11 -18 11 -29 -4 -7 -9 -16 -17 -21 -17 -4 0 -3 5 4 12 19 19 14
29 -11 23 -15 -4 -28 -1 -36 9 -21 25 14 32 53 11 40 -22 66 -14 66 18 0 18 8
28 30 37 30 12 43 50 18 50 -9 0 -9 3 0 12 7 7 12 23 12 36 0 20 -4 23 -22 19
-12 -4 -28 -1 -35 5 -10 8 -20 8 -39 -1 -30 -13 -44 -7 -44 20 0 16 -5 19 -20
14 -18 -6 -20 -2 -20 49 0 55 1 56 28 56 29 0 72 24 72 41 0 5 -7 9 -15 9 -8
0 -15 5 -15 10 0 6 -12 10 -27 11 l-28 1 30 9 c16 4 39 6 52 3 26 -7 83 13 83
28 0 5 -10 7 -22 4 l-23 -6 23 11 c12 7 22 16 22 21 0 5 -5 6 -12 2 -30 -19
-148 -14 -148 6 0 5 6 7 14 4 9 -3 17 3 21 16 5 15 -2 30 -24 56 -20 22 -31
45 -31 65 0 41 23 33 30 -11 4 -29 10 -34 51 -46 29 -9 53 -24 63 -39 9 -14
21 -25 26 -25 14 0 13 142 -1 177 -9 25 -12 26 -23 12 -10 -14 -15 -15 -35 -5
-18 10 -24 23 -26 62 -2 27 2 55 7 62 15 17 7 22 -38 26 -38 3 -39 5 -42 44
-4 48 15 59 60 36 30 -16 32 -15 49 7 24 31 24 35 -3 43 -15 4 -19 9 -12 13
21 15 12 43 -13 43 -12 0 -23 5 -23 10 0 6 5 10 10 10 24 0 7 32 -25 46 -19 8
-35 21 -35 29 0 18 12 19 27 4 18 -18 23 5 8 35 -8 16 -12 32 -9 37 3 6 0 17
-8 26 -8 10 -12 40 -11 84 1 68 -11 102 -22 57z m-70 -1048 c18 -20 18 -21 -5
-42 l-24 -22 25 -7 c21 -5 22 -7 6 -14 -9 -4 -23 -2 -30 3 -7 6 -18 7 -26 2
-8 -4 -20 -6 -26 -4 -8 4 -12 -10 -11 -46 1 -47 3 -50 23 -45 17 4 21 2 17
-10 -7 -17 -40 -20 -49 -5 -10 15 -35 12 -35 -5 0 -8 -7 -15 -15 -15 -8 0 -15
-9 -15 -20 0 -14 7 -20 23 -20 21 -1 22 -1 3 -15 -11 -8 -28 -13 -38 -9 -22 7
-35 -20 -19 -40 14 -17 -2 -31 -25 -22 -13 5 -13 9 1 36 14 27 14 30 0 30 -12
0 -15 6 -10 21 5 14 4 19 -4 15 -7 -5 -10 9 -7 47 3 29 1 60 -4 67 -22 35 33
67 60 35 21 -25 50 -18 56 14 6 27 8 28 35 18 35 -14 62 7 62 47 0 31 8 33 32
6z m-19 -177 c-10 -10 -19 5 -10 18 6 11 8 11 12 0 2 -7 1 -15 -2 -18z m-16
-173 c0 -10 -2 -11 -37 -15 -12 -1 -34 -10 -48 -19 -14 -9 -31 -14 -37 -10 -8
5 7 17 37 31 53 24 85 29 85 13z m-154 -49 c-7 -11 -46 -2 -46 10 0 4 8 12 17
18 19 10 40 -10 29 -28z m123 -103 c-42 -36 -79 -49 -79 -28 0 6 -11 8 -25 4
-18 -4 -25 -2 -25 7 1 27 27 49 57 49 17 0 36 6 43 14 6 8 24 16 38 18 43 5
39 -23 -9 -64z m224 -134 c14 3 32 9 40 12 13 5 15 -3 13 -43 -1 -27 -10 -60
-19 -73 -12 -17 -13 -28 -6 -43 12 -21 7 -28 -33 -45 -23 -10 -28 -9 -28 3 0
8 -6 15 -13 15 -24 0 -58 58 -55 92 l3 32 38 -57 c50 -77 73 -78 42 -3 -9 21
-11 36 -5 36 5 0 10 9 10 20 0 13 -14 27 -40 40 -22 11 -40 24 -40 29 0 19 35
17 51 -2 12 -14 23 -18 42 -13z m-195 -131 c-3 -34 -8 -41 -50 -63 -26 -13
-50 -22 -54 -18 -7 7 86 118 99 118 5 0 7 -17 5 -37z m-201 -90 c-3 -10 -5 -4
-5 12 0 17 2 24 5 18 2 -7 2 -21 0 -30z m386 -82 c51 4 67 -1 67 -21 0 -17 -3
-19 -17 -11 -20 11 -62 -2 -79 -24 -9 -12 -11 -8 -12 16 0 17 -10 49 -22 72
l-21 42 31 -38 c21 -24 39 -37 53 -36z m-183 -6 c0 -17 -4 -23 -15 -19 -8 3
-29 -1 -46 -10 -39 -19 -49 -20 -49 -3 0 23 17 39 51 47 54 13 59 11 59 -15z
m-437 -21 c-4 -10 -9 -12 -15 -6 -12 12 -1 35 12 27 5 -3 6 -13 3 -21z m307 0
c0 -8 -4 -12 -10 -9 -5 3 -10 10 -10 16 0 5 5 9 10 9 6 0 10 -7 10 -16z m247
-47 c-6 -19 -22 -6 -25 20 -2 27 -2 27 13 8 8 -10 14 -23 12 -28z m-477 17 c0
-8 -8 -14 -18 -14 -10 0 -27 6 -37 14 -18 13 -17 14 18 14 25 0 37 -5 37 -14z
m350 -29 c0 -3 -7 -21 -14 -40 -13 -29 -20 -35 -45 -35 -36 0 -39 11 -10 51
13 18 29 29 45 29 13 0 24 -2 24 -5z m-474 -30 c-3 -9 -10 -13 -16 -10 -6 4
-5 11 3 20 15 16 22 11 13 -10z m-9106 11 c0 -10 -68 -44 -100 -51 l-35 -7 20
22 c11 12 29 26 40 31 21 8 75 12 75 5z m9156 -39 c14 -8 8 -37 -7 -37 -4 0
-6 6 -3 14 3 8 1 17 -5 21 -6 3 -11 14 -10 23 0 14 2 14 6 2 3 -8 12 -18 19
-23z m634 23 c0 -15 -64 -29 -72 -16 -5 7 3 13 20 17 42 10 52 10 52 -1z
m-10036 -47 c-10 -40 -14 -41 -14 -5 0 18 5 32 10 32 6 0 8 -11 4 -27z m9286
-3 c13 -8 13 -10 -2 -10 -9 0 -20 5 -23 10 -8 13 5 13 25 0z m670 0 c0 -5 18
-10 40 -10 22 0 40 -4 40 -10 0 -11 -59 -14 -84 -4 -17 7 -22 34 -6 34 6 0 10
-4 10 -10z m-9870 -4 c0 -3 -4 -8 -10 -11 -5 -3 -10 -1 -10 4 0 6 5 11 10 11
6 0 10 -2 10 -4z m250 -11 c-8 -10 -11 -31 -7 -60 6 -43 6 -44 -33 -66 -22
-13 -40 -26 -40 -31 0 -4 -5 -8 -11 -8 -6 0 -9 6 -6 14 3 7 -2 26 -12 42 -9
16 -15 39 -13 52 4 24 47 52 81 52 11 0 23 5 26 10 3 6 11 10 17 10 6 0 6 -6
-2 -15z m1107 -37 c-3 -8 -6 -5 -6 6 -1 11 2 17 5 13 3 -3 4 -12 1 -19z m8003
5 c0 -24 -47 -46 -54 -27 -3 8 -1 14 5 14 6 0 9 7 5 15 -4 11 1 15 19 15 17 0
25 -6 25 -17z m-9003 -25 c-3 -8 -6 -5 -6 6 -1 11 2 17 5 13 3 -3 4 -12 1 -19z
m9333 -8 c0 -5 -8 -10 -17 -10 -9 0 -25 -7 -35 -17 -16 -15 -18 -15 -18 0 0
18 26 36 53 37 9 0 17 -4 17 -10z m40 -15 c0 -8 -4 -15 -10 -15 -5 0 -7 7 -4
15 4 8 8 15 10 15 2 0 4 -7 4 -15z m-9630 -5 c0 -5 -5 -10 -11 -10 -5 0 -7 5
-4 10 3 6 8 10 11 10 2 0 4 -4 4 -10z m-75 -10 c3 -5 16 -10 28 -10 20 -1 21
-2 5 -14 -23 -17 -11 -29 14 -15 11 6 22 8 25 6 7 -7 -52 -37 -73 -37 -20 0
-54 28 -54 45 0 27 42 46 55 25z m9846 -9 c-7 -5 -11 -13 -7 -19 3 -6 2 -13
-4 -17 -6 -4 -10 5 -10 19 0 18 5 26 18 26 13 0 14 -2 3 -9z m-157 -86 c8 -8
27 -15 43 -15 l28 -1 -33 -14 c-41 -18 -82 -5 -82 25 0 24 22 26 44 5z m-9580
-98 c7 -6 6 -7 -4 -4 -8 2 -16 12 -17 23 -2 13 -1 15 4 4 3 -8 11 -19 17 -23z
m9366 -7 c0 -5 -5 -10 -11 -10 -5 0 -7 5 -4 10 3 6 8 10 11 10 2 0 4 -4 4 -10z
m-9334 -28 c-22 -5 -30 3 -21 18 5 8 11 7 22 -2 15 -12 14 -13 -1 -16z m519
-63 c-3 -4 -12 -6 -20 -3 -8 4 -13 10 -10 15 3 4 12 6 20 3 8 -4 13 -10 10
-15z m-4 -62 c-13 -13 -26 -3 -16 12 3 6 11 8 17 5 6 -4 6 -10 -1 -17z m503
-31 c3 -13 15 -26 26 -29 16 -4 20 -13 20 -51 0 -46 0 -46 -35 -46 -40 0 -45
-11 -13 -32 22 -14 20 -15 -36 -22 -51 -7 -62 -5 -87 14 -16 11 -37 20 -46 18
-10 -2 -19 4 -20 12 -4 19 87 53 140 51 32 0 37 2 36 22 0 12 -4 31 -8 42 -9
21 -4 45 9 45 4 0 11 -11 14 -24z m-969 -56 c-3 -5 -10 -10 -16 -10 -5 0 -9 5
-9 10 0 6 7 10 16 10 8 0 12 -4 9 -10z m135 -102 c0 -48 18 -78 46 -78 17 0
19 -40 2 -41 -10 0 -10 -2 0 -6 13 -5 17 -23 5 -23 -18 1 -66 50 -68 68 -1 11
-7 27 -14 36 -16 19 -31 83 -25 101 4 10 11 10 30 1 20 -9 24 -18 24 -58z
m370 52 c0 -5 -2 -10 -4 -10 -3 0 -8 5 -11 10 -3 6 -1 10 4 10 6 0 11 -4 11
-10z m10 -30 c0 -5 -5 -10 -11 -10 -5 0 -7 5 -4 10 3 6 8 10 11 10 2 0 4 -4 4
-10z m294 -126 c9 -24 7 -28 -9 -14 -17 14 -20 30 -6 30 5 0 12 -7 15 -16z
m-512 -76 c-7 -7 -12 -8 -12 -2 0 14 12 26 19 19 2 -3 -1 -11 -7 -17z m58 -15
c0 -12 -2 -12 -15 1 -8 8 -15 20 -15 27 0 9 4 8 15 -1 8 -7 15 -19 15 -27z
m1011 -145 c-22 -56 -33 -108 -28 -128 4 -16 -5 -33 -30 -61 l-37 -40 28 -56
c25 -52 26 -56 9 -68 -10 -8 -22 -10 -27 -5 -5 5 -19 2 -34 -8 -23 -15 -25
-15 -37 1 -6 9 -15 14 -18 11 -8 -8 -29 35 -22 46 3 6 -1 10 -9 10 -10 0 -16
9 -16 21 0 16 4 19 19 14 16 -5 19 -1 18 15 -1 11 -5 20 -10 20 -4 0 -6 4 -2
9 3 6 -3 14 -12 20 -10 6 -12 11 -6 11 9 0 10 7 4 24 -9 21 -6 25 30 36 36 12
65 41 71 72 2 9 -6 12 -25 10 -25 -3 -28 -1 -22 18 6 20 4 21 -44 14 -40 -5
-51 -4 -51 7 0 12 21 14 103 13 56 -1 111 2 122 7 32 12 35 11 26 -13z m-231
-149 c0 -5 -5 -8 -12 -6 -6 1 -14 -6 -16 -15 -2 -12 3 -18 13 -18 9 0 14 -4
10 -9 -3 -6 -14 -9 -25 -8 -15 1 -20 9 -20 33 0 27 4 32 25 32 14 0 25 -4 25
-9z m-980 -34 c-7 -9 -15 -13 -18 -10 -3 2 1 11 8 20 7 9 15 13 18 10 3 -2 -1
-11 -8 -20z m-37 -35 c6 -22 0 -25 -22 -11 -7 5 -10 14 -7 20 11 17 23 13 29
-9z m1007 -34 c0 -8 -7 -17 -16 -20 -9 -4 -14 -13 -10 -21 3 -8 1 -15 -4 -15
-11 0 -14 53 -3 63 11 12 33 7 33 -7z m1267 -118 c-3 -8 -6 -5 -6 6 -1 11 2
17 5 13 3 -3 4 -12 1 -19z m-852 -48 c4 -17 22 -43 42 -59 40 -33 39 -60 -4
-80 -22 -10 -29 -9 -50 11 l-24 22 21 8 c29 11 20 32 -15 38 -19 3 -35 16 -48
37 l-19 33 24 9 c45 19 66 13 73 -19z m-1925 -10 c0 -5 -7 -10 -16 -10 -8 0
-12 5 -9 10 3 6 10 10 16 10 5 0 9 -4 9 -10z m1650 -110 c0 -5 -8 -10 -17 -10
-15 0 -16 2 -3 10 19 12 20 12 20 0z m549 -31 c-11 -6 -11 -11 -1 -21 20 -20
14 -38 -12 -38 -36 0 -38 11 -8 61 20 34 27 40 30 25 2 -10 -2 -22 -9 -27z
m-469 -44 c14 -16 10 -18 -14 -9 -9 3 -16 10 -16 15 0 14 16 11 30 -6z m200
-31 c0 -8 -4 -12 -10 -9 -5 3 -10 10 -10 16 0 5 5 9 10 9 6 0 10 -7 10 -16z
m-445 -33 c-3 -6 -11 -11 -17 -11 -6 0 -6 6 2 15 14 17 26 13 15 -4z m707 -40
c-7 -4 -8 -12 -2 -21 21 -33 0 -42 -32 -13 -18 16 -17 17 9 45 23 25 29 27 31
12 2 -9 -1 -20 -6 -23z m436 -116 c18 -8 22 -18 22 -58 l0 -48 -35 7 c-40 7
-47 -7 -14 -30 l22 -15 -25 -6 c-35 -9 -93 -2 -91 10 1 6 14 11 28 13 32 4 32
19 0 34 -40 18 -32 40 13 36 l37 -3 1 50 c1 65 4 76 13 45 4 -14 17 -29 29
-35z m-408 -21 c0 -16 -9 -18 -30 -4 -13 9 -13 11 0 19 17 12 30 5 30 -15z
m-140 12 c0 -3 -4 -8 -10 -11 -5 -3 -10 -1 -10 4 0 6 5 11 10 11 6 0 10 -2 10
-4z m681 -56 c5 0 9 -21 9 -47 0 -61 8 -72 57 -83 63 -15 133 -48 140 -67 11
-31 35 -53 60 -53 26 0 29 -6 11 -23 -35 -33 -71 -48 -96 -41 -15 4 -31 6 -37
4 -77 -22 -109 -16 -156 31 -29 29 -23 33 12 8 l31 -22 23 29 c26 33 22 49
-24 86 -38 30 -61 77 -68 140 -6 46 -4 51 11 45 10 -4 22 -7 27 -7z m295 -27
c-10 -10 -19 5 -10 18 6 11 8 11 12 0 2 -7 1 -15 -2 -18z m3529 -20 c7 -25 -1
-29 -25 -13 -8 5 -10 10 -3 10 6 0 9 9 6 23 -7 29 12 11 22 -20z m-4285 2 c0
-19 -24 -30 -41 -19 -9 5 -7 11 6 21 24 17 35 17 35 -2z m4214 -92 c-13 -10
-15 -16 -7 -21 8 -5 3 -11 -12 -18 -19 -9 -25 -9 -29 2 -3 8 -11 14 -18 14
-17 0 -41 37 -29 45 5 2 27 4 50 3 23 -1 44 2 48 6 4 4 9 2 12 -5 2 -7 -5 -18
-15 -26z m43 -15 c-3 -7 -5 -2 -5 12 0 14 2 19 5 13 2 -7 2 -19 0 -25z m-4208
5 c-8 -9 -15 -10 -24 -3 -6 5 -15 7 -18 3 -4 -3 -7 -1 -7 5 0 6 13 10 30 10
24 -1 28 -4 19 -15z m716 7 c7 -12 -2 -12 -30 0 -19 8 -19 9 2 9 12 1 25 -3
28 -9z m3461 -98 c-10 -17 -66 -20 -66 -4 0 8 6 12 15 8 8 -3 21 1 27 9 14 14
34 3 24 -13z m-3464 -143 c4 -34 6 -64 4 -66 -2 -3 -18 3 -36 12 -43 22 -48
13 -15 -31 25 -33 26 -37 11 -46 -16 -9 -16 -10 0 -22 27 -21 12 -39 -34 -40
-31 -1 -44 3 -48 16 -2 9 -12 19 -22 23 -12 4 -13 8 -4 14 8 5 9 19 3 51 -8
39 -9 41 -10 14 -1 -19 -7 -34 -16 -38 -12 -4 -13 -2 -6 13 12 22 5 31 -25 31
-17 0 -22 4 -17 16 5 13 -2 15 -42 12 -27 -2 -49 2 -52 8 -2 7 30 10 94 9 98
-2 170 15 188 45 12 19 -4 25 -35 13 -17 -6 -30 -8 -30 -5 0 14 65 50 74 41 5
-4 13 -36 18 -70z m-1142 30 c0 -5 4 -7 10 -4 12 7 70 -25 70 -39 0 -13 32
-35 53 -36 10 0 15 -4 12 -10 -3 -5 2 -10 13 -10 27 0 60 -43 72 -93 11 -50
11 -83 0 -47 -5 17 -8 19 -9 8 -1 -10 -6 -18 -11 -18 -7 0 -7 -6 -1 -18 13
-24 -13 -64 -37 -60 -11 2 -21 -9 -29 -32 -11 -33 -12 -34 -12 -7 -1 28 -25
59 -56 71 -29 11 -105 -76 -105 -121 0 -20 -4 -32 -10 -28 -5 3 -10 1 -10 -4
0 -6 -9 -11 -21 -11 -14 0 -19 5 -16 15 4 8 2 17 -3 20 -6 4 -10 25 -10 49 0
41 -2 44 -40 59 -38 14 -40 18 -36 49 2 18 7 41 11 51 6 14 1 17 -29 17 -48 0
-116 38 -116 66 0 27 16 46 63 74 80 47 247 88 247 59z m1641 -176 c-9 -16
-10 -15 -11 8 0 14 3 29 8 33 12 12 14 -22 3 -41z m139 16 c0 -6 -4 -7 -10 -4
-5 3 -10 11 -10 16 0 6 5 7 10 4 6 -3 10 -11 10 -16z m-58 -11 c-7 -7 -12 -8
-12 -2 0 14 12 26 19 19 2 -3 -1 -11 -7 -17z m-762 -16 c-14 -2 -20 -9 -16
-18 3 -8 -1 -14 -10 -14 -8 0 -12 -5 -9 -10 4 -6 11 -8 16 -4 6 3 17 3 25 0
13 -5 12 -9 -7 -26 -13 -11 -18 -19 -11 -20 6 0 12 -5 12 -11 0 -5 -4 -8 -9
-4 -5 3 -13 0 -16 -6 -4 -5 -13 -8 -21 -5 -8 3 -14 -1 -14 -9 0 -8 -5 -15 -11
-15 -6 0 -9 -5 -7 -12 5 -15 48 -18 72 -6 14 8 17 7 14 -4 -3 -7 -15 -14 -27
-16 -15 -2 -21 -9 -17 -18 3 -8 -1 -14 -9 -14 -18 0 -20 -20 -2 -21 6 0 1 -5
-12 -10 -13 -5 -25 -8 -27 -6 -2 1 -4 22 -5 45 -2 27 -8 42 -16 42 -7 0 -12 6
-10 13 1 7 -7 11 -20 9 -26 -4 -32 25 -11 46 9 9 9 12 0 12 -20 0 -15 58 6 63
9 3 38 10 65 17 26 7 50 17 53 21 3 5 14 3 25 -4 20 -12 20 -12 -1 -15z m1139
-16 l22 -24 -33 -31 -33 -31 33 0 c18 0 31 -4 28 -9 -3 -5 -32 -9 -64 -8 -72
0 -86 -7 -71 -35 6 -11 9 -36 6 -54 -7 -41 5 -43 63 -14 l40 20 -12 -25 c-8
-18 -14 -22 -19 -13 -6 10 -13 7 -29 -10 l-22 -23 -33 20 c-36 21 -45 19 -45
-11 0 -11 -7 -18 -20 -18 -15 0 -20 -7 -20 -26 0 -24 3 -25 33 -19 l32 6 -25
-20 c-14 -11 -38 -21 -53 -21 -33 0 -46 -24 -28 -52 7 -11 9 -18 4 -16 -4 2
-20 10 -35 17 -24 12 -29 11 -53 -8 -15 -11 -32 -18 -38 -14 -15 9 39 53 66
53 33 0 47 13 68 60 l19 43 -55 -6 c-48 -5 -55 -3 -55 12 0 20 34 68 62 89 9
7 24 19 32 27 8 8 26 15 40 15 22 0 27 5 32 39 6 38 7 39 33 25 14 -8 32 -14
39 -14 22 0 52 39 52 70 0 36 9 38 39 6z m-670 0 c15 -18 2 -27 -27 -19 -22 5
-27 14 -15 26 11 11 30 8 42 -7z m-2085 -35 c4 -5 24 -7 45 -5 24 3 63 -3 99
-15 49 -17 65 -18 90 -9 39 15 82 -2 82 -32 0 -27 -26 -77 -60 -117 -15 -17
-30 -37 -34 -45 -4 -9 -8 -9 -11 -2 -10 21 -109 -18 -157 -61 -135 -122 -226
-190 -273 -205 -22 -7 -46 -19 -52 -28 -11 -14 -15 -12 -35 9 -67 73 -106 143
-115 206 -5 34 -1 47 22 77 15 19 24 39 21 44 -3 5 8 28 25 51 23 32 34 41 49
36 16 -5 19 -3 13 11 -5 13 -3 16 10 11 11 -4 23 3 36 22 14 19 38 33 73 44
59 17 164 22 172 8z m1696 -25 c0 -8 17 -31 38 -50 30 -29 35 -39 26 -53 -13
-22 -36 -30 -28 -10 3 10 -5 19 -25 28 -24 11 -31 20 -31 41 0 18 -5 28 -15
28 -8 0 -15 7 -15 15 0 9 9 15 25 15 15 0 25 -6 25 -14z m-815 -96 c-24 -75
-25 -84 -11 -99 9 -10 16 -22 16 -27 0 -5 11 -19 23 -30 22 -21 55 -119 44
-131 -12 -11 -67 9 -68 25 0 9 -2 26 -4 36 -2 10 3 25 11 33 21 21 17 39 -4
20 -32 -30 -89 -15 -64 16 16 21 21 59 11 79 -6 10 -6 18 -1 18 9 0 42 75 57
128 4 13 9 21 12 18 3 -2 -7 -41 -22 -86z m1595 58 c24 -3 24 -4 -9 -21 -19
-9 -43 -17 -53 -17 -18 0 -18 2 4 28 13 16 25 26 28 21 3 -4 16 -9 30 -11z
m-370 -49 c0 -10 -4 -19 -9 -19 -12 0 -23 29 -15 41 8 14 24 0 24 -22z m1258
10 c-2 -6 -8 -10 -13 -10 -5 0 -11 4 -13 10 -2 6 4 11 13 11 9 0 15 -5 13 -11z
m1647 -28 c7 -12 -25 -30 -42 -24 -7 2 -9 11 -6 19 6 16 39 19 48 5z m-3045
-31 c0 -5 -4 -10 -10 -10 -5 0 -10 5 -10 10 0 6 5 10 10 10 6 0 10 -4 10 -10z
m2210 -50 c-19 -13 -30 -13 -30 0 0 6 10 10 23 10 18 0 19 -2 7 -10z m67 -63
c1 -28 -5 -37 -29 -52 -28 -16 -31 -16 -40 -1 -5 9 -16 16 -23 16 -18 0 -20
26 -3 37 7 4 31 13 53 20 22 6 40 11 41 12 0 1 0 -14 1 -32z m153 19 c0 -3 -4
-8 -10 -11 -5 -3 -10 -1 -10 4 0 6 5 11 10 11 6 0 10 -2 10 -4z m-390 -42 c0
-17 -22 -14 -28 4 -2 7 3 12 12 12 9 0 16 -7 16 -16z m-173 -11 c-4 -3 0 -11
8 -17 8 -6 16 -23 17 -38 2 -22 8 -28 25 -28 15 0 21 -6 20 -18 -1 -16 -10
-18 -65 -17 -37 0 -71 -4 -80 -12 -25 -18 -34 -16 -27 7 4 14 2 20 -9 20 -24
0 -28 18 -10 45 15 24 18 24 34 10 24 -22 74 -35 91 -24 11 7 8 14 -14 30 -22
17 -25 24 -16 35 6 8 16 14 22 14 6 0 7 -3 4 -7z m526 -30 c5 -7 13 -10 19 -7
7 4 8 2 4 -4 -4 -7 -14 -12 -22 -12 -8 0 -14 -6 -14 -14 0 -14 -37 -29 -52
-20 -13 8 -9 82 5 87 15 5 49 -11 60 -30z m-273 18 c0 -18 -26 -29 -57 -24
-18 3 -33 9 -33 13 0 5 13 6 29 4 16 -3 32 0 36 6 8 12 25 13 25 1z m666 -28
c-11 -11 -17 4 -9 23 7 18 8 18 11 1 2 -10 1 -21 -2 -24z m-3994 15 c5 -14 61
-13 89 3 36 19 20 -9 -18 -33 -58 -35 -54 -54 12 -49 11 1 36 -12 55 -29 19
-18 27 -29 18 -26 -21 6 -25 -9 -5 -17 16 -6 54 -113 44 -123 -4 -4 -17 2 -30
13 -41 37 -52 37 -22 0 18 -21 37 -35 47 -33 24 5 30 -21 12 -49 -9 -14 -13
-33 -9 -44 4 -13 -1 -27 -16 -42 -16 -16 -18 -23 -9 -29 8 -5 9 -10 2 -14 -12
-7 -12 -46 0 -46 4 0 8 -7 8 -15 0 -9 6 -12 15 -9 27 11 16 -13 -20 -40 -33
-25 -34 -27 -17 -46 9 -11 21 -20 27 -20 7 0 10 -12 7 -29 -3 -21 2 -33 22
-48 14 -12 26 -22 26 -24 0 -2 -19 -5 -43 -7 -23 -1 -43 -7 -45 -11 -2 -5 -28
-2 -59 6 -61 16 -70 13 -54 -14 6 -10 11 -12 11 -5 0 20 20 14 20 -6 0 -38 37
-57 121 -61 84 -3 100 -20 21 -22 -54 -1 -48 -5 20 -14 29 -4 60 -16 77 -31
34 -28 51 -32 27 -5 -16 17 -15 19 8 35 14 9 34 16 45 16 31 0 118 -48 140
-78 11 -15 28 -35 37 -44 25 -26 29 -119 6 -149 -10 -13 -24 -43 -32 -67 -8
-26 -26 -52 -46 -67 -32 -25 -33 -25 -39 -4 -4 11 -9 18 -12 15 -3 -2 0 -20 6
-39 7 -19 13 -44 16 -56 8 -43 29 -91 35 -81 4 6 13 -2 21 -17 8 -16 17 -30
21 -33 3 -3 15 -27 26 -55 14 -37 26 -51 46 -56 23 -6 25 -5 16 12 -8 15 -7
19 5 19 16 0 20 15 6 24 -4 3 -11 25 -14 50 -4 25 -20 64 -38 91 -17 25 -29
48 -26 51 7 7 89 -112 115 -168 23 -51 28 -103 13 -155 -7 -22 -5 -44 6 -75 8
-24 20 -86 26 -138 9 -83 8 -100 -6 -128 -8 -18 -11 -29 -5 -26 7 5 9 -2 6
-20 -3 -14 -1 -29 3 -32 5 -3 9 -17 9 -32 0 -14 12 -43 26 -64 15 -21 24 -41
20 -45 -3 -3 -6 -1 -6 5 0 6 -6 9 -14 6 -8 -3 -12 -12 -9 -20 3 -8 -1 -14 -10
-14 -19 0 -16 28 4 41 11 7 9 9 -8 9 -12 0 -25 -5 -28 -11 -4 -6 -7 -61 -7
-122 1 -106 0 -110 -14 -84 -9 17 -13 39 -9 54 7 29 -3 66 -16 58 -15 -10 -10
2 8 20 10 10 12 19 6 23 -30 21 -17 96 16 85 14 -6 14 -4 1 13 -29 37 -40 63
-30 69 6 4 1 15 -12 26 -19 15 -20 20 -9 28 8 5 21 7 29 4 12 -5 12 -2 2 16
-9 18 -8 27 5 47 11 18 20 22 28 16 9 -8 12 -4 12 14 0 26 -23 41 -31 20 -5
-14 -34 -18 -34 -4 0 5 9 19 20 31 11 12 18 27 16 33 -2 6 1 17 7 23 16 16 1
14 -34 -4 -18 -10 -27 -21 -23 -28 4 -7 3 -8 -2 -4 -11 10 -16 57 -13 111 1
16 6 23 15 19 8 -3 14 0 14 6 0 6 -9 11 -19 11 -11 0 -22 6 -24 13 -4 9 -8 8
-16 -3 -8 -12 -13 -12 -30 4 -11 10 -19 21 -17 25 2 3 -2 15 -10 26 -8 10 -14
17 -15 14 0 -2 -2 -11 -4 -19 -3 -8 -6 -22 -7 -30 -2 -8 -7 -20 -11 -27 -4 -6
-3 -13 3 -15 6 -2 12 -14 15 -27 2 -14 8 -27 12 -30 14 -10 14 -34 1 -43 -11
-6 -11 -10 1 -17 10 -6 11 -13 2 -29 -12 -22 0 -39 19 -27 6 3 10 3 11 -2 0
-4 2 -19 5 -32 l4 -25 -18 22 c-11 12 -22 22 -26 22 -14 0 -4 -21 24 -52 21
-23 28 -38 24 -53 -4 -11 -7 -33 -6 -49 0 -16 -4 -38 -9 -48 -7 -13 -6 -18 2
-18 8 0 8 -4 -1 -15 -7 -8 -9 -15 -4 -15 4 0 -1 -7 -12 -15 -16 -12 -16 -14
-3 -15 23 0 51 -34 43 -54 -3 -9 -10 -16 -15 -16 -12 0 -11 -37 1 -45 17 -10
11 -25 -10 -25 -11 0 -20 -5 -20 -11 0 -6 8 -8 19 -4 13 4 23 0 29 -11 6 -10
16 -15 25 -11 11 4 14 2 10 -9 -4 -10 0 -12 11 -8 9 3 16 2 17 -2 0 -5 2 -36
3 -68 1 -35 7 -61 14 -64 8 -2 12 -37 12 -107 0 -57 3 -106 8 -108 4 -3 54 11
112 30 95 32 121 36 262 44 175 8 219 13 330 36 l77 16 23 56 c12 31 22 59 21
63 -2 4 11 21 28 37 17 17 28 35 24 41 -3 5 2 10 11 10 10 0 30 12 45 26 36
35 61 28 139 -37 51 -42 59 -53 50 -69 -5 -10 -10 -23 -10 -28 0 -4 43 -28 95
-52 74 -33 103 -52 127 -84 21 -26 24 -34 10 -22 -29 25 -41 12 -15 -17 34
-36 83 -132 83 -160 0 -39 -36 -36 -93 8 -74 56 -160 68 -254 35 -41 -14 -60
-17 -75 -9 -15 8 -19 7 -16 -5 4 -20 -11 -20 -49 1 -31 16 -35 16 -136 -9 -68
-17 -156 -50 -253 -95 -272 -128 -550 -232 -642 -240 -34 -3 -65 -10 -68 -14
-5 -9 13 -50 27 -59 14 -10 38 -172 34 -230 -3 -38 -24 -182 -32 -215 -16 -71
-18 -259 -4 -329 9 -47 9 -96 -1 -112 -4 -5 9 -18 28 -29 35 -19 74 -83 74
-123 0 -10 9 -29 20 -42 21 -24 43 -88 34 -101 -5 -9 -117 -73 -145 -84 -11
-4 -20 3 -29 24 l-12 30 -103 -93 c-92 -83 -111 -96 -190 -124 -102 -37 -150
-41 -165 -13 -19 36 -11 50 59 105 105 84 143 161 157 316 6 76 16 100 40 100
20 0 15 267 -6 281 -11 8 -12 12 -2 16 17 7 15 62 -3 69 -11 4 -12 10 -6 18 6
6 8 21 6 31 -2 11 -4 30 -4 43 -1 14 -7 22 -18 22 -12 0 -14 3 -6 8 18 11 1
121 -20 134 -8 5 -8 8 -1 8 17 0 -12 122 -32 137 -10 7 -21 13 -26 13 -4 0 -8
5 -8 11 0 6 9 8 23 3 l22 -7 -20 23 c-18 21 -18 23 -2 17 16 -6 17 -2 12 46
-7 59 -44 195 -55 202 -4 3 -10 -41 -13 -98 -6 -124 -21 -161 -83 -207 -74
-56 -104 -87 -104 -109 0 -12 3 -20 8 -20 4 1 18 1 30 0 22 -1 20 -5 -23 -47
-37 -36 -46 -51 -42 -70 2 -13 0 -27 -4 -30 -5 -3 -9 -1 -9 5 0 6 -6 8 -12 6
-7 -3 -13 -21 -14 -40 0 -33 1 -34 20 -22 12 8 32 20 46 28 14 8 28 19 32 24
5 6 8 3 8 -6 0 -20 -24 -42 -35 -31 -5 4 -5 1 -1 -5 4 -7 -10 -30 -34 -56 -22
-24 -40 -51 -40 -60 0 -9 -6 -22 -14 -30 -13 -12 -13 -18 0 -42 18 -35 18 -45
-2 -45 -11 0 -15 -6 -12 -18 3 -10 -1 -24 -9 -31 -8 -7 -12 -22 -10 -32 3 -11
0 -19 -6 -20 -8 0 -8 -2 1 -6 6 -2 12 -9 12 -15 0 -6 -7 -8 -14 -5 -10 4 -13
1 -10 -8 3 -8 11 -13 17 -12 6 1 13 -9 15 -22 2 -15 0 -21 -7 -17 -6 4 -11 2
-11 -5 0 -8 -4 -8 -15 1 -22 18 -25 10 -14 -37 7 -26 19 -45 35 -53 13 -8 24
-16 24 -19 0 -3 -14 -28 -30 -56 -27 -45 -30 -47 -30 -23 0 15 6 33 13 40 12
10 10 15 -11 25 -33 18 -47 16 -32 -3 16 -18 22 -62 10 -69 -4 -3 -6 -14 -3
-26 3 -11 -2 -37 -12 -58 -18 -41 -18 -72 1 -78 7 -2 15 8 18 23 4 15 14 37
23 48 12 16 14 17 10 4 -4 -10 -3 -18 2 -18 18 0 39 38 46 84 6 45 5 49 -9 37
-14 -12 -15 -10 -4 20 12 34 12 34 19 9 14 -49 10 -157 -6 -170 -20 -16 -19
-31 0 -23 21 7 45 -26 35 -47 -5 -8 -14 -30 -21 -48 -7 -21 -31 -46 -65 -70
-32 -22 -54 -44 -54 -56 0 -20 -1 -21 64 32 22 18 31 20 37 10 5 -7 1 -20 -8
-30 -19 -21 -11 -23 20 -7 22 12 22 12 4 -9 -11 -11 -16 -26 -12 -32 4 -6 1
-18 -6 -26 -10 -12 -9 -13 3 -9 21 8 88 -23 82 -38 -3 -8 10 -18 33 -26 21 -7
45 -20 55 -28 10 -9 18 -11 22 -4 4 6 15 7 29 2 23 -9 121 -6 137 4 14 9 52
-14 47 -28 -2 -7 5 -20 16 -29 15 -14 17 -21 8 -32 -9 -11 -7 -15 9 -19 11 -3
20 -12 20 -21 0 -21 -39 -56 -70 -62 -14 -3 -41 -12 -60 -20 -104 -42 -227
-42 -310 0 -31 15 -82 31 -118 35 -56 7 -64 5 -73 -11 -18 -33 -176 -18 -228
21 -31 24 -43 98 -24 155 7 21 10 55 7 76 -6 34 -10 39 -41 45 -50 9 -113 44
-114 64 -2 31 3 66 11 71 4 3 14 39 22 80 14 70 16 75 39 72 13 -2 25 -8 27
-12 2 -4 11 -6 22 -3 15 4 18 1 14 -15 -4 -12 0 -22 10 -25 18 -7 23 8 29 88
2 28 11 66 20 85 9 19 19 55 22 80 4 25 9 59 12 75 3 17 7 71 10 122 4 84 3
91 -14 89 -10 -2 -12 -1 -5 1 6 3 12 9 12 14 0 6 4 8 9 5 5 -3 9 7 9 22 0 39
12 165 17 180 6 18 -33 15 -52 -4 -10 -10 -18 -12 -22 -5 -4 6 -12 6 -20 2
-11 -7 -9 -10 7 -15 11 -4 26 -13 33 -22 10 -12 8 -17 -7 -29 -24 -18 -35 -19
-28 -1 3 8 1 17 -5 20 -7 5 -9 -4 -7 -23 3 -27 0 -31 -20 -31 -13 0 -24 -4
-24 -10 0 -5 4 -10 10 -10 13 0 1 -32 -18 -47 -13 -11 -10 -13 23 -13 30 0 36
-3 27 -12 -7 -7 -12 -26 -12 -43 0 -23 -3 -26 -10 -15 -6 9 -10 11 -10 3 0 -7
-7 -10 -15 -7 -14 6 -17 2 -19 -28 -1 -7 -5 -16 -10 -19 -5 -4 -5 -23 1 -45 7
-32 13 -39 33 -39 16 -1 24 -6 22 -15 -2 -7 3 -17 10 -21 18 -11 -9 -57 -36
-61 -14 -2 -21 -10 -21 -25 0 -12 -4 -25 -7 -29 -8 -8 10 -28 34 -36 14 -6 15
-11 5 -31 -10 -21 -13 -22 -25 -10 -8 8 -17 11 -20 8 -4 -3 0 -10 8 -16 13 -7
13 -10 1 -18 -8 -5 -11 -16 -7 -29 6 -17 3 -19 -13 -15 -15 4 -18 9 -12 22 5
9 4 44 -1 81 -5 36 -6 112 -3 170 13 193 13 275 1 283 -8 5 -7 10 3 16 17 11
25 119 9 138 -8 9 -7 13 1 13 8 0 10 8 6 19 -3 11 -2 22 3 25 5 3 9 32 9 66 1
33 6 66 12 74 6 7 8 16 4 19 -3 4 4 18 17 32 13 14 20 25 16 25 -4 0 -4 6 1
12 4 7 6 21 5 30 -2 10 2 18 8 18 8 0 8 6 0 20 -9 16 -8 22 5 26 9 4 13 13 10
24 -3 9 3 28 13 41 11 13 17 30 14 38 -3 8 3 20 13 27 10 7 15 20 12 28 -4 9
-2 18 3 21 4 3 7 25 5 50 -2 29 1 43 8 38 7 -4 7 0 2 13 -5 10 -10 39 -11 64
-1 25 -6 57 -12 72 -14 35 -32 175 -32 253 0 93 -29 159 -98 224 -63 59 -99
125 -107 195 l-5 41 20 -44 c20 -44 80 -120 80 -102 0 21 -13 41 -26 41 -7 0
-16 12 -19 28 -3 15 -14 49 -25 75 -17 45 -17 48 -2 45 39 -6 84 65 75 118 -3
16 -2 26 2 22 7 -7 100 101 92 108 -2 3 -28 -14 -57 -37 -67 -53 -88 -41 -39
23 47 61 56 76 40 61 -11 -9 -19 -8 -38 4 -13 9 -25 14 -26 12 -2 -2 -14 -21
-27 -41 -29 -45 -43 -49 -33 -10 14 54 10 77 -14 76 -13 0 -23 5 -23 12 0 7
-5 16 -12 20 -6 4 -8 3 -4 -4 3 -6 2 -13 -3 -16 -8 -5 -21 47 -21 89 0 11 27
58 60 105 33 47 60 90 60 95 0 6 -8 -2 -18 -17 -20 -33 -20 -34 -77 -7 -58 27
-72 45 -57 69 8 14 8 20 0 22 -7 3 -8 10 -4 17 6 9 12 8 27 -5 11 -10 19 -12
19 -6 0 7 -4 12 -10 12 -5 0 -10 6 -10 14 0 8 -6 16 -14 19 -7 3 -17 26 -20
51 -4 25 -11 46 -17 46 -5 0 -9 5 -9 10 0 11 -10 24 -42 61 -10 10 -17 22 -17
26 4 27 -3 45 -15 40 -9 -4 -17 4 -21 21 -12 49 -14 82 -4 82 5 0 2 11 -7 25
-13 19 -14 28 -5 39 9 11 9 16 0 21 -8 6 -7 10 2 17 10 6 6 7 -10 3 -22 -7
-24 -5 -18 23 4 18 2 34 -4 38 -6 4 -5 11 3 22 10 12 10 16 1 19 -15 5 -18 33
-4 33 6 0 13 -5 16 -11 5 -6 12 -4 20 8 17 23 15 25 -24 13 -24 -7 -33 -6 -37
5 -3 8 -12 11 -20 8 -8 -3 -11 -10 -7 -17 9 -13 4 -58 -7 -69 -4 -5 -12 6 -16
25 -4 18 -9 36 -10 41 -1 4 -2 19 -3 35 -1 21 -3 24 -11 12 -15 -24 -41 -1
-74 64 -20 40 -32 53 -37 44 -16 -24 -9 -88 15 -157 21 -61 23 -72 10 -88 -13
-17 -16 -16 -42 13 -15 17 -46 43 -69 58 -23 15 -44 34 -47 42 -3 8 -12 14
-20 14 -24 0 -39 39 -41 105 -3 76 -12 105 -33 105 -9 0 -25 7 -35 14 -17 13
-17 17 -4 43 23 46 61 176 59 201 -4 29 22 55 47 47 13 -4 23 2 35 20 9 14 22
25 29 25 9 0 8 -3 -1 -9 -21 -13 24 -21 75 -14 29 4 50 14 62 30 11 13 21 19
23 13 2 -7 36 -1 93 15 71 21 117 27 215 30 69 2 119 1 112 -2 -21 -8 -2 -23
31 -23 24 0 28 3 17 10 -10 7 5 8 46 4 80 -8 131 1 139 26 4 13 13 18 33 15
15 -2 31 -4 36 -4 4 -1 6 -7 3 -14 -3 -7 1 -20 7 -30 12 -15 15 -13 35 13 21
29 39 34 53 16 3 -5 14 -2 23 7 24 25 93 71 144 97 24 12 66 40 93 61 53 42
64 46 70 27z m2153 -8 c36 -24 63 -25 93 -4 30 21 28 3 -3 -26 -22 -21 -29
-23 -46 -11 -18 10 -24 10 -42 -6 -12 -9 -16 -11 -9 -3 20 23 14 30 -27 30
-24 0 -41 5 -44 14 -12 32 34 35 78 6z m1255 -54 c0 -2 -12 -3 -26 -3 -16 0
-23 4 -20 13 3 7 -2 18 -10 24 -8 7 -14 19 -14 28 0 9 13 1 35 -22 19 -21 35
-39 35 -40z m-130 24 c0 -5 -2 -10 -4 -10 -3 0 -8 5 -11 10 -3 6 -1 10 4 10 6
0 11 -4 11 -10z m-1326 -35 c-7 -17 -6 -16 -51 -20 -38 -3 -44 11 -10 25 37
15 67 12 61 -5z m527 -1 c41 -37 -32 -71 -75 -34 -14 11 -13 14 7 31 27 23 45
24 68 3z m959 -4 c0 -21 -2 -25 -13 -21 -7 2 -22 3 -34 3 -13 -1 -23 3 -23 9
0 5 4 8 8 5 4 -2 14 -1 22 5 20 12 40 11 40 -1z m-3209 -65 c1 6 0 20 -1 33
-2 25 4 26 49 11 38 -13 66 -67 62 -118 -2 -20 -2 -63 -1 -96 2 -60 2 -114 1
-324 l0 -114 -41 6 c-40 5 -80 30 -80 49 0 5 4 7 9 4 4 -3 6 6 3 21 -3 18 -1
24 7 19 7 -5 11 2 11 19 0 15 -4 24 -10 20 -5 -3 -10 -2 -10 2 0 10 42 38 53
35 5 -1 1 8 -7 20 -9 12 -16 34 -17 48 0 14 -3 19 -6 12 -6 -15 -23 -6 -23 14
0 8 8 14 18 14 10 0 13 3 6 8 -6 4 -14 17 -18 30 -6 16 -3 22 8 22 19 0 20 7
2 39 l-14 24 -7 -23 c-5 -16 -9 -19 -15 -10 -5 8 -2 23 7 37 9 14 13 36 11 55
-4 23 0 36 10 44 13 10 12 11 -11 9 -22 -3 -26 0 -23 17 3 23 -27 93 -45 104
-8 4 -7 9 2 15 10 6 22 -1 41 -24 15 -17 28 -27 29 -22z m846 3 c-3 -7 -5 -2
-5 12 0 14 2 19 5 13 2 -7 2 -19 0 -25z m646 -21 c3 -7 -4 -19 -14 -25 -17
-11 -19 -9 -19 13 0 26 24 35 33 12z m238 -50 c-11 -27 -104 -107 -126 -107
-26 0 -27 34 -2 55 13 11 32 33 42 48 10 16 24 26 31 23 8 -3 24 -2 36 3 29
11 31 9 19 -22z m1517 -39 c-2 -15 -12 -22 -33 -24 -25 -2 -27 -1 -14 9 11 9
15 22 11 46 l-5 34 22 -22 c12 -12 21 -32 19 -43z m175 41 c4 -16 3 -18 -9 -8
-16 13 -19 29 -5 29 5 0 11 -9 14 -21z m-648 -29 c3 -5 1 -10 -4 -10 -6 0 -11
5 -11 10 0 6 2 10 4 10 3 0 8 -4 11 -10z m539 -19 c3 -5 -1 -11 -9 -15 -9 -3
-15 0 -15 9 0 16 16 20 24 6z m-2072 -43 c-7 -7 -12 -8 -12 -2 0 6 3 14 7 17
3 4 9 5 12 2 2 -3 -1 -11 -7 -17z m1618 12 c0 -17 -31 -24 -51 -12 -11 7 -20
8 -24 2 -10 -16 -25 -12 -19 5 7 17 94 22 94 5z m505 -60 c-27 -12 -35 -12
-35 0 0 6 12 10 28 9 24 0 25 -1 7 -9z m-1116 -29 c9 -6 0 -10 -28 -13 -36 -3
-40 -2 -25 9 21 15 34 16 53 4z m-349 -16 c7 -9 8 -15 2 -15 -5 0 -12 7 -16
15 -3 8 -4 15 -2 15 2 0 9 -7 16 -15z m-20 -21 c0 -2 -7 -4 -15 -4 -8 0 -15 4
-15 10 0 5 7 7 15 4 8 -4 15 -8 15 -10z m305 -14 c-3 -5 -11 -10 -16 -10 -6 0
-7 5 -4 10 3 6 11 10 16 10 6 0 7 -4 4 -10z m-582 -67 c-24 -3 -30 -8 -26 -20
4 -11 2 -14 -5 -9 -27 16 -12 36 26 34 36 -1 36 -1 5 -5z m1163 -14 c9 -15
-33 -10 -45 5 -9 11 -6 12 14 8 14 -2 28 -8 31 -13z m-1236 -13 c0 -3 -4 -8
-10 -11 -5 -3 -10 -1 -10 4 0 6 5 11 10 11 6 0 10 -2 10 -4z m442 -46 c4 0 8
-16 8 -35 0 -49 -12 -43 -31 15 -16 50 -12 79 5 41 5 -12 13 -21 18 -21z m294
3 c-11 -11 -19 6 -11 24 8 17 8 17 12 0 3 -10 2 -21 -1 -24z m-706 23 c0 -3
-4 -8 -10 -11 -5 -3 -10 -1 -10 4 0 6 5 11 10 11 6 0 10 -2 10 -4z m-277 -21
c4 -8 2 -17 -3 -20 -6 -4 -10 3 -10 14 0 25 6 27 13 6z m1367 -21 c0 -8 5 -14
10 -14 19 0 10 -19 -12 -26 -30 -9 -61 -40 -53 -53 3 -6 11 -8 17 -5 7 4 8 2
4 -4 -4 -7 -14 -12 -22 -12 -8 0 -13 -5 -11 -11 1 -6 -4 -14 -10 -16 -9 -3
-13 6 -13 27 0 18 4 29 10 25 13 -8 13 6 0 39 -7 20 -6 26 4 26 7 0 23 11 36
25 24 25 40 25 40 -1z m-950 -14 c0 -5 -7 -10 -15 -10 -8 0 -15 5 -15 10 0 6
7 10 15 10 8 0 15 -4 15 -10z m-1750 -10 c0 -5 -5 -10 -11 -10 -5 0 -7 5 -4
10 3 6 8 10 11 10 2 0 4 -4 4 -10z m1698 -17 c-4 -33 -24 -41 -33 -14 -8 25 1
41 21 41 11 0 14 -8 12 -27z m286 -13 c25 -38 25 -40 6 -40 -11 0 -20 5 -20
10 0 6 -6 10 -13 10 -7 0 -18 9 -24 20 -11 16 -10 21 5 29 9 6 18 11 18 11 1
0 13 -18 28 -40z m146 -11 c0 -22 -4 -26 -19 -22 -19 5 -31 37 -23 61 7 22 42
-11 42 -39z m-800 -19 c0 -5 -4 -10 -10 -10 -5 0 -10 5 -10 10 0 6 5 10 10 10
6 0 10 -4 10 -10z m825 -36 c13 -5 14 -9 3 -15 -11 -7 -10 -11 2 -18 8 -6 11
-13 7 -17 -7 -8 -57 34 -57 48 0 10 22 10 45 2z m630 -5 c3 -4 -6 -14 -21 -24
-25 -16 -27 -16 -44 3 -10 11 -17 21 -15 23 6 6 73 4 80 -2z m-1182 -22 c4 3
7 1 7 -5 0 -7 -9 -12 -20 -12 -12 0 -20 7 -20 16 0 13 3 14 13 5 8 -6 17 -8
20 -4z m1041 -34 c-16 -12 -17 -15 -4 -23 13 -8 12 -10 -2 -10 -13 0 -18 8
-18 29 0 20 6 31 18 33 24 5 28 -13 6 -29z m-378 16 c3 -6 2 -15 -2 -19 -12
-12 -38 5 -30 19 9 14 23 14 32 0z m441 -15 c-3 -3 -12 -4 -19 -1 -8 3 -5 6 6
6 11 1 17 -2 13 -5z m-1033 -71 c9 -22 -12 -43 -23 -24 -10 15 -4 41 9 41 4 0
11 -8 14 -17z m745 -57 c-9 -8 -10 -5 -5 14 3 14 6 32 7 40 1 8 4 2 6 -14 3
-16 -1 -34 -8 -40z m-410 -150 l22 -23 -31 -27 c-17 -14 -41 -26 -53 -26 l-21
0 22 20 c13 12 22 33 22 50 0 36 9 38 39 6z m-2909 -1186 c0 -5 -2 -10 -4 -10
-3 0 -8 5 -11 10 -3 6 -1 10 4 10 6 0 11 -4 11 -10z m1430 -275 c0 -8 -4 -15
-10 -15 -5 0 -10 7 -10 15 0 8 5 15 10 15 6 0 10 -7 10 -15z m-1270 -1606 c0
-5 5 -7 12 -3 7 5 8 3 4 -5 -5 -7 -15 -10 -23 -6 -13 4 -14 3 -3 -10 10 -12
10 -15 -3 -15 -18 0 -30 37 -13 44 19 8 26 6 26 -5z m411 -266 c-8 -15 -10
-15 -11 -2 0 17 10 32 18 25 2 -3 -1 -13 -7 -23z"/>
<path d="M1355 5560 c3 -5 8 -10 11 -10 2 0 4 5 4 10 0 6 -5 10 -11 10 -5 0
-7 -4 -4 -10z"/>
<path d="M730 4946 c0 -9 8 -16 20 -16 11 0 20 5 20 12 0 6 -3 8 -7 5 -3 -4
-12 -2 -20 4 -10 9 -13 8 -13 -5z"/>
<path d="M792 4919 c-19 -7 -23 -15 -20 -39 1 -17 -2 -34 -9 -38 -6 -4 -13
-16 -15 -27 -2 -17 2 -19 29 -17 22 2 35 -2 43 -15 9 -15 10 -14 3 7 -4 14 -7
51 -5 83 1 31 1 57 0 56 -2 0 -13 -4 -26 -10z"/>
<path d="M820 4739 c0 -6 20 -42 45 -80 25 -38 45 -71 45 -75 0 -13 43 -124
47 -121 2 2 -4 23 -12 47 -8 23 -15 63 -15 89 0 73 -8 92 -35 85 -19 -5 -27 0
-39 24 -17 34 -36 50 -36 31z"/>
<path d="M1080 4315 c-8 -9 -8 -15 -2 -15 12 0 26 19 19 26 -2 2 -10 -2 -17
-11z"/>
<path d="M1075 4281 c-3 -5 -1 -12 5 -16 5 -3 10 1 10 9 0 18 -6 21 -15 7z"/>
<path d="M2485 4020 c3 -5 8 -10 11 -10 2 0 4 5 4 10 0 6 -5 10 -11 10 -5 0
-7 -4 -4 -10z"/>
<path d="M2551 3574 c0 -11 3 -14 6 -6 3 7 2 16 -1 19 -3 4 -6 -2 -5 -13z"/>
<path d="M2694 3437 c0 -16 6 -23 14 -19 15 5 12 34 -4 39 -7 2 -11 -6 -10
-20z"/>
<path d="M9501 8374 c0 -11 3 -14 6 -6 3 7 2 16 -1 19 -3 4 -6 -2 -5 -13z"/>
<path d="M911 7754 c0 -11 3 -14 6 -6 3 7 2 16 -1 19 -3 4 -6 -2 -5 -13z"/>
</g>
</svg>
